<?xml version="1.0" encoding="UTF-8"?>
<svg width="1000" height="343.35" xmlns="http://www.w3.org/2000/svg" viewBox="0 0 1000 343.35">
  <g id="c" data-name="Layer 1">
    <path
      d="m75.92,191.42c1.13,63.54-16.58,155.41,75.91,151.83v-75.91c-1.69-53.14-15.18-74.23-75.91-75.91Z"
      style="fill: #888;" />
    <path
      d="m80.78,191.61c1.28.06,2.55.13,3.79.21.21.01.42.03.64.04,1.16.08,2.3.17,3.42.26.15.01.3.02.45.04,1.2.11,2.36.22,3.52.35.24.03.48.05.72.08,1.15.13,2.29.27,3.4.42.09.01.18.03.28.04,1.06.15,2.09.31,3.11.47.18.03.36.06.55.09,1.05.18,2.08.36,3.09.56.18.04.36.07.55.11,1.01.2,2.01.42,2.98.64.02,0,.04,0,.06.01.99.23,1.95.48,2.89.73.17.05.34.09.51.14.92.25,1.83.52,2.72.8.11.03.21.07.31.1.85.27,1.68.55,2.49.84.09.03.19.06.28.1.85.31,1.67.63,2.48.96.14.06.27.11.41.17,1.64.69,3.19,1.42,4.68,2.21.11.06.21.11.32.17.72.39,1.43.79,2.12,1.21.09.05.18.11.26.16.69.43,1.37.86,2.03,1.31,0,0,.02.01.03.02.66.46,1.3.93,1.93,1.41.09.07.18.14.27.21.62.49,1.22.98,1.81,1.49.03.03.06.05.09.08.58.51,1.14,1.03,1.68,1.57.05.05.1.09.15.14.55.54,1.08,1.1,1.59,1.68.06.07.13.14.19.22,1.04,1.17,2.01,2.39,2.92,3.68.05.07.1.15.16.22.45.64.88,1.3,1.3,1.97.03.05.06.1.09.15.42.69.83,1.38,1.23,2.1,0,0,0,.02.01.02.39.72.77,1.45,1.13,2.2.04.08.08.17.12.25.73,1.51,1.4,3.09,2.01,4.73.02.06.04.11.06.16.3.82.59,1.65.87,2.5.02.07.05.14.07.21.56,1.72,1.06,3.5,1.52,5.35.02.08.04.16.06.24.23.93.44,1.88.65,2.85,0,.02,0,.03.01.05.21,1,.41,2.01.6,3.05,1.42,7.88,2.17,16.83,2.49,26.95C156.53,120.4,147.27,110.75,0,115.51c-.61,65.73,37.65,70.82,75.92,75.91h0s0,0,0,0c1.38.04,2.72.09,4.05.15.27.01.54.02.8.04Z"
      style="fill: #ffac4d;" />
    <circle cx="104.63" cy="48.08" r="48.08" style="fill: #ffac4d;" />
    <path d="m403.67,132.02l-116.73,209.92h-1.88l-123.32-209.92h78.13l48.01,97.9,42.36-97.9h73.42Z"
      style="fill: #212121;" />
    <path
      d="m400.14,175.8c9.88-16.63,23.84-29.73,41.89-39.3,18.04-9.57,38.51-14.36,61.42-14.36s43.07,4.79,60.48,14.36c17.42,9.57,30.83,22.67,40.24,39.3,9.41,16.64,14.12,35.46,14.12,56.48s-4.71,40.01-14.12,56.95c-9.41,16.94-22.83,30.2-40.24,39.77-17.41,9.57-37.89,14.36-61.42,14.36s-43.23-4.47-60.95-13.41c-17.73-8.94-31.53-21.72-41.42-38.36-9.88-16.63-14.83-36.4-14.83-59.3,0-21.02,4.94-39.85,14.83-56.48Zm65.66,97.66c9.41,10.83,21.33,16.24,35.77,16.24s27.22-5.33,36.48-16c9.25-10.66,13.88-24.31,13.88-40.95s-4.63-30.28-13.88-40.95c-9.26-10.66-21.42-16-36.48-16s-26.36,5.41-35.77,16.24c-9.41,10.83-14.12,24.4-14.12,40.71s4.71,29.89,14.12,40.71Z"
      style="fill: #212121;" />
    <path
      d="m931.28,273.7l29.18,48.95c-11.3,6.28-23.22,11.3-35.77,15.06-12.55,3.77-24.47,5.65-35.77,5.65-24.48,0-45.58-4.63-63.31-13.88-17.73-9.25-31.14-22.28-40.24-39.07-9.1-16.78-13.65-36.01-13.65-57.66,0-20.08,5.25-38.6,15.77-55.54,10.51-16.94,24.86-30.36,43.07-40.24,18.19-9.88,38.12-14.83,59.78-14.83,29.49,0,53.73,8.63,72.72,25.89,18.98,17.26,31.3,41.89,36.95,73.9l-150.61,48.01c10.04,11.61,23.69,17.41,40.95,17.41,13.18,0,26.83-4.54,40.95-13.65Zm-81.43-85.19c-8.79,10.05-13.18,23.53-13.18,40.48v4.24l90.37-30.59c-6.59-19.45-20.56-29.18-41.89-29.18-14.75,0-26.52,5.02-35.3,15.06Z"
      style="fill: #212121;" />
    <path d="m721.37,16.06v115.02h49.89v51.3h-49.89v155.32h-65.89v-155.32h-32v-51.3h32V16.06h65.89Z"
      style="fill: #212121;" />
  </g>
</svg>