<svg xmlns="http://www.w3.org/2000/svg" style="stroke-width:0" viewBox="0 0 1000 362.974">
  <path d="M280.752 335.156c-7.85-14.232-15.727-28.699-23.414-42.998l-32.442-60.333c-6.673-12.305-13.646-25.063-20.696-37.866-6.139-11.137-12.281-22.535-18.252-33.871l-13.203-25.064h73.394l4.886 8.793c2.409 4.336 4.703 8.93 6.82 13.656 2.236 4.995 4.509 9.961 6.763 14.766 5.809 12.082 11.531 24.055 17.214 36.026 5.121 10.789 10.446 21.617 15.856 32.241 4.832-10.458 9.531-21.178 13.987-31.915 5.025-12.107 10.169-24.197 15.286-35.936 2.089-4.774 4.133-9.695 6.083-14.644 1.877-4.768 3.994-9.418 6.29-13.811l4.797-9.177h69.388L401.052 159.8c-6.719 13.363-13.696 26.899-20.739 40.234-7.728 14.626-15.492 29.58-23.078 44.45-9.196 17.787-18.447 35.87-27.541 53.83-6.118 12.085-12.455 24.374-18.835 36.529l-14.764 28.129-15.343-27.818Zm233.118 20.017c-22.101 0-41.743-4.678-58.382-13.903-16.948-9.397-29.754-22.165-39.151-39.033-9.228-16.567-13.908-36.174-13.908-58.276 0-21.79 4.749-41.539 14.116-58.697 9.524-17.449 22.485-30.877 39.621-41.048 16.895-10.027 36.616-15.111 58.615-15.111 21.705 0 40.979 5.015 57.287 14.906 16.515 10.025 29.021 23.308 38.237 40.613 9.051 17.001 13.64 36.351 13.64 57.516 0 21.771-4.549 41.388-13.52 58.305-9.149 17.254-21.675 30.403-38.296 40.196-16.36 9.643-35.962 14.533-58.259 14.533Zm-.228-170.753c-10.549 0-19.058 2.685-26.015 8.209-7.079 5.622-12.502 12.92-16.119 21.69-3.695 8.947-5.567 18.458-5.567 28.275 0 9.152 1.963 18.074 5.835 26.515 3.826 8.349 9.35 15.249 16.42 20.518 6.977 5.2 15.076 7.727 24.763 7.727 10.437 0 19.175-2.627 25.972-7.811 6.971-5.314 12.296-12.293 15.828-20.744 3.615-8.642 5.447-17.995 5.447-27.799 0-9.503-1.834-18.745-5.451-27.471-3.542-8.54-8.848-15.647-15.773-21.123-6.805-5.372-15.097-7.987-25.339-7.987Zm154.59 166.427.008-17.104c.011-23.581.126-47.369.342-70.701.223-24.053.337-48.389.342-72.362l-.091.002c-3.057.08-6.569.338-10.444.767-1.181.132-2.356.209-3.485.228l-17.399.308v-57.416h31.419c-.008-12.079-.085-24.537-.228-37.062-.14-11.815-.216-23.846-.226-35.756l-.015-17.112h63.757l-.006 17.103c-.005 11.62-.042 23.628-.112 35.739-.071 11.765-.111 24.229-.114 37.087h48.098l-.065 17.163c-.014 3.628-.05 7.361-.108 11.137-.061 3.63-.096 7.431-.109 11.344l-.059 17.038h-47.756c.005 23.94.08 48.087.228 71.806.144 24.045.222 47.829.228 70.69l.005 17.101h-64.206Zm237.241 5.464c-22.825 0-43.059-4.628-60.14-13.754-17.429-9.313-30.59-22.201-40.231-39.399-9.46-16.866-14.257-37.091-14.257-60.108 0-21.454 4.544-41.023 13.507-58.166 9.137-17.47 21.683-30.911 38.356-41.093 16.456-10.047 35.964-15.141 57.983-15.141 27.783 0 49.074 7.662 65.083 23.424 14.852 14.629 25.258 34.08 30.936 57.818l3.289 13.751-12.889 5.812c-4.78 2.154-9.867 4.087-15.122 5.746-5.578 1.761-11.121 3.708-16.477 5.787l-.235.09c-15.817 5.875-31.974 11.733-48.022 17.409-15.251 5.394-30.569 11.177-45.563 17.2 5.481 9.104 12.86 16.017 21.961 20.565 9.916 4.963 20.703 7.477 32.065 7.477 8.973 0 17.432-1.436 25.144-4.268 7.369-2.703 14.771-6.091 22.007-10.071l15.639-8.604 7.921 15.996c.507 1.025 1.264 2.588 2.377 4.956 1.823 3.896 3.526 7.689 5.077 11.306l5.784 13.619-12.035 7.92c-10.725 6.927-23.631 12.276-38.358 15.902-15.711 3.866-30.449 5.827-43.802 5.827Zm-6.147-173.94c-10.52 0-18.936 2.708-25.73 8.277-6.914 5.669-12.109 13.015-15.444 21.834-2.639 6.986-4.276 14.242-4.889 21.644l39.528-13.697c13.637-4.725 27.216-9.45 40.735-14.178-3.266-5.879-7.434-11.173-12.432-15.782-5.915-5.447-13.039-8.099-21.768-8.099Z" style="fill:#333"/>
  <path d="M85.483 206.061c0 125.538 2.603 151.538 77.712 151.538 0-104.615-2.603-151.538-77.712-151.538Z" style="fill:#888"/>
  <path d="M163.194 357.598c0-225.324 17.065-233.135-163.194-233.135 0 56.331 14.667 81.597 85.483 81.597 75.108 0 77.712 46.923 77.712 151.538Zm-3.885-308.903c0 28.501-20.069 48.57-48.57 48.57s-48.57-20.069-48.57-48.57S82.238.125 110.739.125s48.57 20.069 48.57 48.57Z" style="fill:#ffac4d"/>
</svg>