<?xml version="1.0" encoding="UTF-8"?>
<svg width="1000" height="344.05" xmlns="http://www.w3.org/2000/svg" viewBox="0 0 1000 344.05" fill="#212121">
    <path
      d="m144.96,344.05c-21.69,0-37.68-5.57-48.86-17.02-22.22-22.75-21.21-66.04-20.32-104.24.22-9.39.43-18.3.33-26.86,28.66,1.03,46.19,6.61,56.67,17.98,9.95,10.8,14.39,27.04,15.31,56.06v74.04c-1.05.03-2.08.04-3.12.04h-.02Z"
    />
    <path
      d="m148.84,234.64c-.17-.77-.34-1.5-.51-2.22l-.06-.24c-.47-1.91-1-3.76-1.56-5.51l-.07-.22c-.29-.87-.59-1.73-.9-2.58l-.04-.1c-.66-1.76-1.36-3.41-2.11-4.98l-.12-.26c-.41-.84-.8-1.59-1.18-2.29-.41-.75-.83-1.47-1.29-2.22l-.11-.18c-.41-.66-.87-1.36-1.35-2.05l-.16-.22c-.96-1.35-1.99-2.65-3.07-3.87l-.21-.23c-.55-.61-1.11-1.2-1.67-1.75l-.11-.1c-.63-.61-1.22-1.17-1.81-1.69l-.08-.07c-.59-.52-1.21-1.03-1.91-1.58l-.29-.23c-.71-.55-1.37-1.03-2.02-1.48-.67-.46-1.36-.91-2.15-1.39l-.28-.17c-.7-.42-1.44-.85-2.2-1.26l-.33-.17c-1.53-.81-3.16-1.58-4.85-2.29l-.43-.18c-.88-.36-1.71-.69-2.55-.99l-.29-.1c-.83-.3-1.69-.59-2.56-.87l-.32-.1c-.91-.28-1.84-.56-2.79-.82l-.52-.14c-.98-.26-1.96-.51-2.97-.75-1.05-.25-2.07-.46-3.11-.67l-.55-.11c-1.03-.2-2.08-.39-3.15-.57l-.56-.09c-1.03-.17-2.08-.33-3.16-.48l-.29-.04c-1.12-.15-2.27-.3-3.44-.43l-.73-.08c-1.17-.13-2.35-.25-3.57-.35l-.46-.04c-1.13-.1-2.28-.18-3.46-.26l-.64-.04c-1.25-.08-2.53-.15-3.83-.21l-.78-.03c-1.34-.06-2.66-.11-4.01-.15C36.12,182.69.15,177.85,0,115.68c17.94-.57,31.1-.82,42.48-.82,49.92,0,73.68,5.37,87.67,19.81,15.74,16.25,19.46,44.29,18.69,99.97Z"
    />
    <circle cx="102.82" cy="48.18" r="48.18" />
    <path d="m402.46,132.29l-116.96,210.34h-1.89l-123.57-210.34h78.29l48.11,98.1,42.45-98.1h73.57Z"
    />
    <path
      d="m398.92,176.15c9.9-16.66,23.89-29.79,41.97-39.38,18.08-9.59,38.59-14.38,61.55-14.38s43.15,4.8,60.6,14.38c17.45,9.59,30.89,22.72,40.32,39.38,9.43,16.67,14.15,35.53,14.15,56.59s-4.72,40.09-14.15,57.07c-9.43,16.98-22.87,30.26-40.32,39.85-17.45,9.59-37.97,14.38-61.55,14.38s-43.32-4.48-61.08-13.44c-17.77-8.96-31.6-21.77-41.5-38.44-9.9-16.66-14.86-36.47-14.86-59.43,0-21.06,4.95-39.93,14.86-56.59Zm65.79,97.86c9.43,10.85,21.38,16.27,35.84,16.27s27.27-5.34,36.55-16.03c9.27-10.69,13.91-24.36,13.91-41.03s-4.64-30.34-13.91-41.03c-9.28-10.68-21.46-16.03-36.55-16.03s-26.41,5.42-35.84,16.27-14.15,24.45-14.15,40.8,4.72,29.95,14.15,40.8Z"
    />
    <path
      d="m931.14,274.25l29.24,49.05c-11.32,6.29-23.27,11.32-35.84,15.09-12.58,3.77-24.52,5.66-35.84,5.66-24.52,0-45.67-4.64-63.43-13.91-17.77-9.27-31.21-22.32-40.32-39.15-9.12-16.82-13.68-36.08-13.68-57.77,0-20.12,5.26-38.67,15.8-55.65,10.53-16.98,24.91-30.42,43.15-40.32,18.23-9.9,38.2-14.86,59.9-14.86,29.55,0,53.84,8.65,72.87,25.94,19.02,17.3,31.36,41.97,37.02,74.05l-150.92,48.11c10.06,11.64,23.74,17.45,41.03,17.45,13.21,0,26.88-4.55,41.03-13.68Zm-81.59-85.36c-8.81,10.07-13.21,23.58-13.21,40.56v4.25l90.55-30.66c-6.6-19.49-20.6-29.24-41.97-29.24-14.78,0-26.57,5.03-35.37,15.09Z"
    />
    <path
      d="m720.8,16.09v115.26h49.99v51.41h-49.99v155.64h-66.03v-155.64h-32.07v-51.41h32.07V16.09h66.03Z"
    />
</svg>